<?xml version="1.0" encoding="iso-8859-1"?>
<!-- Uploaded to: SVG Repo, www.svgrepo.com, Generator: SVG Repo Mixer Tools -->
<!DOCTYPE svg PUBLIC "-//W3C//DTD SVG 1.1//EN" "http://www.w3.org/Graphics/SVG/1.1/DTD/svg11.dtd">
<svg fill="#c50f0f" height="800px" width="800px" version="1.1" id="Capa_1" xmlns="http://www.w3.org/2000/svg" xmlns:xlink="http://www.w3.org/1999/xlink" 
	 viewBox="0 0 305.064 305.064" xml:space="preserve">
<g>
	<path d="M145.79,99.616c0-14.219-11.568-25.787-25.787-25.787c-14.219,0-25.787,11.568-25.787,25.787
		c0,14.219,11.568,25.787,25.787,25.787C134.221,125.403,145.79,113.835,145.79,99.616z M120.003,113.403
		c-7.603,0-13.787-6.184-13.787-13.787c0-7.603,6.184-13.787,13.787-13.787c7.603,0,13.787,6.185,13.787,13.787
		C133.79,107.219,127.605,113.403,120.003,113.403z"/>
	<path d="M152.534,166.835c-14.219,0-25.787,11.568-25.787,25.787c0,14.223,11.568,25.793,25.787,25.793
		c14.219,0,25.787-11.57,25.787-25.793C178.321,178.403,166.753,166.835,152.534,166.835z M152.534,206.415
		c-7.603,0-13.787-6.188-13.787-13.793c0-7.603,6.185-13.787,13.787-13.787c7.603,0,13.787,6.184,13.787,13.787
		C166.321,200.228,160.137,206.415,152.534,206.415z"/>
	<path d="M182.335,100.829c-14.219,0-25.787,11.568-25.787,25.787c0,14.219,11.568,25.787,25.787,25.787
		c14.219,0,25.787-11.568,25.787-25.787C208.122,112.397,196.554,100.829,182.335,100.829z M182.335,140.403
		c-7.602,0-13.787-6.185-13.787-13.787c0-7.603,6.185-13.787,13.787-13.787c7.603,0,13.787,6.185,13.787,13.787
		C196.122,134.219,189.937,140.403,182.335,140.403z"/>
	<path d="M266.956,22.841C230.372,7.685,191.834,0,152.412,0C113.148,0,74.69,7.683,38.107,22.835
		c-1.471,0.608-2.639,1.777-3.248,3.248c-0.608,1.47-0.608,3.122,0.001,4.593l16.775,40.465c0.002,0.005,0.005,0.009,0.007,0.014
		l95.343,230.211c0.898,2.171,2.985,3.611,5.333,3.694c0.071,0.003,0.142,0.004,0.213,0.004c2.267,0,4.351-1.285,5.369-3.322
		c0.064-0.127,0.123-0.256,0.177-0.388l95.367-230.209l16.758-40.465C271.471,27.618,270.016,24.108,266.956,22.841z
		 M152.529,283.392L65.046,72.156c0.004-0.001,0.007-0.003,0.011-0.004c0.133-0.051,0.267-0.098,0.398-0.149
		c1.685-0.647,3.373-1.277,5.066-1.886c0.612-0.221,1.229-0.426,1.842-0.641c1.217-0.427,2.434-0.854,3.655-1.261
		c0.724-0.241,1.45-0.467,2.175-0.7c1.116-0.361,2.232-0.723,3.352-1.066c0.775-0.238,1.554-0.462,2.331-0.692
		c1.073-0.317,2.147-0.636,3.225-0.938c0.805-0.227,1.611-0.44,2.417-0.658c1.057-0.285,2.113-0.569,3.173-0.84
		c0.82-0.21,1.643-0.41,2.465-0.61c1.049-0.257,2.099-0.51,3.15-0.752c0.833-0.191,1.666-0.375,2.501-0.558
		c1.047-0.229,2.095-0.454,3.145-0.669c0.84-0.173,1.68-0.339,2.521-0.502c1.049-0.204,2.1-0.399,3.15-0.589
		c0.844-0.152,1.688-0.301,2.533-0.444c1.055-0.178,2.11-0.347,3.167-0.511c0.845-0.132,1.69-0.262,2.537-0.385
		c1.064-0.153,2.128-0.295,3.193-0.435c0.843-0.11,1.685-0.222,2.528-0.323c1.08-0.129,2.162-0.245,3.244-0.36
		c0.83-0.088,1.659-0.18,2.49-0.26c1.11-0.107,2.222-0.196,3.334-0.287c0.807-0.066,1.613-0.138,2.422-0.196
		c1.163-0.083,2.328-0.147,3.493-0.215c0.759-0.043,1.517-0.095,2.276-0.131c1.292-0.062,2.586-0.102,3.88-0.143
		c0.636-0.019,1.27-0.051,1.905-0.065c1.931-0.046,3.863-0.071,5.8-0.071c1.943,0,3.884,0.025,5.821,0.071
		c0.649,0.015,1.297,0.046,1.945,0.066c1.287,0.041,2.575,0.081,3.861,0.142c0.771,0.037,1.541,0.089,2.312,0.133
		c1.16,0.066,2.32,0.131,3.478,0.213c0.822,0.059,1.642,0.132,2.463,0.199c1.103,0.09,2.205,0.179,3.306,0.284
		c0.849,0.081,1.696,0.174,2.543,0.264c1.07,0.114,2.141,0.228,3.209,0.355c0.861,0.104,1.721,0.217,2.581,0.329
		c1.052,0.137,2.104,0.277,3.153,0.429c0.865,0.124,1.729,0.257,2.595,0.392c1.039,0.161,2.079,0.327,3.116,0.502
		c0.868,0.146,1.735,0.299,2.602,0.454c1.032,0.186,2.063,0.378,3.093,0.577c0.864,0.167,1.727,0.338,2.59,0.515
		c1.029,0.211,2.059,0.431,3.086,0.655c0.857,0.187,1.712,0.375,2.566,0.571c1.034,0.238,2.066,0.486,3.097,0.737
		c0.843,0.206,1.685,0.41,2.525,0.625c1.044,0.266,2.084,0.545,3.125,0.826c0.823,0.222,1.646,0.44,2.467,0.67
		c1.066,0.3,2.129,0.614,3.191,0.929c0.79,0.233,1.581,0.461,2.369,0.702c1.116,0.343,2.229,0.703,3.341,1.062
		c0.729,0.235,1.459,0.462,2.186,0.703c1.241,0.413,2.478,0.847,3.714,1.28c0.594,0.209,1.189,0.406,1.782,0.619
		c1.824,0.655,3.643,1.331,5.456,2.031c0.002,0,0.005,0.001,0.007,0.002c0.01,0.004,0.019,0.008,0.028,0.012L152.529,283.392z
		 M244.627,61.073c-0.043-0.017-0.086-0.032-0.129-0.048c-0.721-0.279-1.445-0.54-2.168-0.813c-1.19-0.448-2.38-0.9-3.575-1.33
		c-0.817-0.294-1.639-0.571-2.458-0.856c-1.106-0.386-2.213-0.775-3.323-1.146c-0.857-0.286-1.717-0.556-2.575-0.832
		c-1.078-0.347-2.156-0.696-3.238-1.028c-0.881-0.271-1.765-0.527-2.646-0.788c-1.065-0.314-2.131-0.629-3.199-0.93
		c-0.896-0.252-1.796-0.493-2.694-0.735c-1.062-0.286-2.122-0.569-3.187-0.842c-0.904-0.231-1.812-0.453-2.719-0.675
		c-1.064-0.259-2.129-0.515-3.195-0.76c-0.91-0.21-1.821-0.412-2.733-0.611c-1.068-0.233-2.138-0.462-3.21-0.682
		c-0.914-0.188-1.828-0.369-2.744-0.547c-1.076-0.208-2.154-0.408-3.232-0.603c-0.913-0.165-1.827-0.326-2.742-0.48
		c-1.086-0.184-2.175-0.356-3.264-0.526c-0.913-0.142-1.826-0.282-2.74-0.414c-1.099-0.158-2.199-0.305-3.3-0.449
		c-0.907-0.118-1.813-0.238-2.722-0.347c-1.12-0.135-2.243-0.254-3.366-0.373c-0.892-0.095-1.782-0.193-2.675-0.279
		c-1.157-0.11-2.317-0.204-3.477-0.299c-0.861-0.07-1.722-0.147-2.584-0.209c-1.218-0.087-2.439-0.154-3.659-0.224
		c-0.809-0.046-1.616-0.102-2.425-0.14c-1.352-0.064-2.705-0.106-4.06-0.149c-0.681-0.021-1.361-0.054-2.043-0.07
		c-2.036-0.048-4.075-0.074-6.117-0.074c-2.034,0-4.066,0.026-6.096,0.074c-0.673,0.017-1.344,0.049-2.016,0.07
		c-1.354,0.043-2.71,0.085-4.063,0.149c-0.805,0.038-1.608,0.093-2.413,0.14c-1.217,0.069-2.435,0.137-3.649,0.224
		c-0.858,0.062-1.715,0.139-2.572,0.209c-1.157,0.095-2.314,0.189-3.47,0.299c-0.887,0.085-1.772,0.184-2.657,0.277
		c-1.124,0.12-2.247,0.24-3.368,0.375c-0.9,0.107-1.798,0.228-2.696,0.345c-1.104,0.145-2.208,0.292-3.311,0.451
		c-0.906,0.131-1.811,0.271-2.716,0.412c-1.09,0.17-2.18,0.344-3.267,0.527c-0.909,0.154-1.817,0.315-2.725,0.479
		c-1.082,0.195-2.163,0.396-3.242,0.607c-0.906,0.176-1.812,0.356-2.715,0.542c-1.079,0.222-2.156,0.451-3.232,0.688
		c-0.899,0.197-1.797,0.396-2.693,0.603c-1.081,0.249-2.16,0.508-3.238,0.772c-0.887,0.217-1.773,0.434-2.658,0.66
		c-1.088,0.279-2.173,0.569-3.258,0.862c-0.87,0.235-1.74,0.469-2.608,0.713c-1.102,0.31-2.199,0.635-3.298,0.96
		c-0.846,0.25-1.693,0.497-2.538,0.756c-1.132,0.349-2.261,0.714-3.39,1.078c-0.803,0.259-1.607,0.512-2.409,0.779
		c-1.203,0.4-2.401,0.822-3.6,1.241c-0.722,0.253-1.446,0.496-2.167,0.756c-1.391,0.501-2.776,1.024-4.162,1.55
		c-0.523,0.198-1.048,0.387-1.57,0.588c-0.059,0.023-0.119,0.044-0.179,0.067L48.267,31.681C81.712,18.619,116.719,12,152.412,12
		c35.845,0,70.931,6.62,104.385,19.688L244.627,61.073z"/>
</g>
</svg>